<svg width="150" height="150" viewBox="0 0 150 150" fill="none" xmlns="http://www.w3.org/2000/svg">
<path fill-rule="evenodd" clip-rule="evenodd" d="M65.3522 0.667892C39.8941 4.10708 18.4784 19.6152 7.47627 42.5783C-2.49209 63.3836 -2.49209 86.6691 7.47627 107.474C22.3609 138.54 56.1549 155.298 90.2099 148.499C97.9981 146.945 108.512 142.661 115.362 138.251C127.035 130.735 136.343 120.235 142.333 107.823C152.499 86.76 152.557 63.5388 142.496 42.541C135.23 27.3758 123.698 15.6598 108.639 8.14219C94.6684 1.16864 80.1726 -1.33466 65.3522 0.667892ZM88.427 8.95719C101.747 11.8005 113.02 17.908 122.558 27.4483C134.849 39.7436 141.571 55.0986 142.173 72.2547C142.439 79.8396 141.915 84.9992 140.18 91.8712C135.812 109.171 124.407 124.188 108.617 133.43C105.146 135.461 98.5102 138.477 97.5108 138.477C97.2069 138.477 96.5679 137.561 96.09 136.44C93.4958 130.356 93.1118 125.127 94.9835 121.371C96.0592 119.211 96.0879 118.985 95.5762 116.678C94.71 112.771 92.8736 109.215 90.4782 106.806C89.27 105.591 88.2813 104.387 88.2813 104.131C88.2813 103.874 89.1492 102.784 90.2099 101.708C91.2707 100.631 92.1385 99.5281 92.1385 99.2554C92.1385 98.9832 91.4897 98.0019 90.6968 97.075C89.0686 95.1727 89.1518 94.0341 91.0071 92.8182C91.9178 92.221 92.0134 91.947 91.6958 90.8392C91.1961 89.0961 91.5299 88.4427 93.2027 87.8905C94.7207 87.3893 95.1227 86.5752 95.1326 83.9857C95.1403 82.0213 96.6399 79.7508 98.5698 78.7819C99.8037 78.1624 100.745 78.0814 104.133 78.3026L108.21 78.5684L110.359 76.8677C114.348 73.7097 121.379 65.261 122.165 62.6805C122.431 61.8076 122.74 57.9097 122.851 54.0191C123.084 45.8631 122.914 45.3203 119.384 42.9817C117.213 41.5429 117.801 41.6316 104.723 40.7763C101.07 40.5375 97.6004 40.0865 96.7796 39.7436C95.3387 39.1412 95.0062 38.619 93.2631 34.2242C92.9198 33.3582 92.166 32.34 91.5878 31.961C89.9913 30.9145 84.3851 30.4463 73.4138 30.4429C62.1512 30.4391 61.8589 30.5004 52.9234 34.728C45.7524 38.1209 45.7327 38.1427 40.7286 48.0196C38.3157 52.7822 35.6409 57.4548 34.7846 58.4027C33.9287 59.3511 31.8252 61.0732 30.1109 62.2308C26.6921 64.5381 26.273 65.4745 28.0859 66.7533C31.2724 69.0024 31.0778 68.5574 30.5009 72.2692C30.2138 74.1149 29.5006 76.6713 28.9152 77.9498C27.4087 81.2419 27.4678 84.1139 29.0952 86.6811C29.7792 87.7602 30.5695 88.7857 30.8515 88.9597C31.4314 89.3181 33.8516 93.0171 33.8516 93.5453C33.8516 93.7348 33.5546 93.89 33.1915 93.89C31.8912 93.89 29.1175 92.1275 26.3655 89.5522C24.1412 87.4708 23.5656 87.1098 23.5656 87.7953C23.5656 89.0352 25.796 93.0994 28.0541 95.9744C30.1606 98.6565 30.3102 99.0964 29.3789 99.8694C28.6169 100.502 27.4901 99.9748 25.1715 97.9011C24.2869 97.1097 23.2613 96.4623 22.8927 96.4623C22.1556 96.4623 22.2147 96.7933 23.6183 100.535C25.4257 105.353 24.2042 107.271 21.3267 104.134C18.4848 101.035 17.7528 99.8561 16.2317 95.9281C15.4333 93.8656 14.6353 92.1777 14.4583 92.1768C14.2813 92.176 14.1338 94.2493 14.1304 96.7839C14.1266 99.3185 13.9564 101.657 13.7524 101.979C13.0975 103.013 10.3366 95.0561 8.71401 87.4592C7.51698 81.8558 7.62713 67.3638 8.90987 61.5903C11.9279 48.0101 17.9212 36.9629 27.4327 27.4483C36.9883 17.8896 48.6839 11.575 61.5829 9.00949C67.5924 7.81465 67.9747 7.78678 76.4953 7.92869C82.318 8.02558 85.244 8.27767 88.427 8.95719ZM87.2291 43.9249C87.8077 44.5036 88.2813 45.4318 88.2813 45.9874C88.2813 47.4344 86.7761 48.8744 85.2645 48.8744C82.4745 48.8744 81.2397 45.4687 83.4105 43.7611C84.8934 42.5941 85.9443 42.6391 87.2291 43.9249ZM117.615 47.2552C117.982 47.7791 118.282 48.7059 118.282 49.3143C118.282 50.7681 116.481 54.3415 114.74 56.3414L113.353 57.9341L110.829 55.6739C107.815 52.9764 106.589 50.6382 107.227 48.8071C107.945 46.7471 110.304 46.0788 112.191 47.4014C113.075 48.0209 113.234 48.0041 114.273 47.187C115.725 46.0445 116.782 46.0659 117.615 47.2552ZM54.4149 53.5732C54.891 54.507 55.2806 55.7061 55.2806 56.2381C55.2806 57.0776 55.5896 56.8996 57.6219 54.8924C59.7177 52.8217 59.9984 52.666 60.3001 53.4064C60.7317 54.4641 60.7364 58.915 60.3083 60.9257L59.9787 62.4734L62.3757 62.7551C66.9217 63.2897 69.9565 65.1139 73.4331 69.4024C77.0623 73.8782 77.7901 74.4716 80.0427 74.7893C83.1975 75.2347 83.4803 75.3946 84.0225 77.0379C84.7202 79.1519 84.2848 82.6297 83.0076 85.1497C81.4553 88.2112 80.536 88.8761 77.5561 89.0918C75.03 89.2748 74.994 89.2958 73.719 91.3687L72.4315 93.4613H56.3083H40.1847L40.4821 91.8536C40.6458 90.9696 41.1079 89.4879 41.509 88.5614C42.2042 86.9559 42.1999 86.7651 41.4126 84.4886C40.2323 81.0756 40.2704 76.2409 41.497 73.8589C42.565 71.7839 44.4881 69.7492 47.2704 67.7505L49.2055 66.3606L50.9862 59.8681C53.2941 51.4528 53.1681 51.8755 53.3721 51.8755C53.4694 51.8755 53.9383 52.6394 54.4149 53.5732ZM56.3542 62.8078C55.9316 63.751 55.4945 65.8796 55.3826 67.5383C55.185 70.4759 55.224 70.623 56.8959 73.2103L58.6124 75.8666L59.0688 74.6962C59.989 72.3374 59.8424 70.6011 58.6274 69.4688C57.8894 68.7807 57.7034 68.1578 57.7586 66.5583C57.7972 65.4384 57.6699 63.751 57.4758 62.8078L57.1231 61.0929L56.3542 62.8078ZM67.991 73.335C65.8995 74.9809 67.0173 78.4561 69.638 78.4561C71.9537 78.4561 73.362 75.1258 71.6738 73.6429C70.3405 72.472 69.2082 72.3773 67.991 73.335ZM72.5211 97.6413C74.6053 100.016 82.6986 116.744 86.2618 126.044C88.6212 132.201 91.0911 140.096 90.7611 140.426C90.6672 140.52 89.1548 140.928 87.4001 141.332C84.9251 141.903 82.1445 142.07 74.9953 142.077C66.3808 142.086 65.447 142.009 60.655 140.883C54.159 139.358 50.6819 138.112 44.7804 135.198C39.9168 132.796 34.4914 129.144 30.2249 125.399L27.7803 123.253L30.8635 114.895C32.559 110.298 34.9727 104.367 36.2263 101.714L38.5064 96.891H55.1842C70.5316 96.891 71.9151 96.9511 72.5211 97.6413Z" fill="black"/>
</svg>
