<svg width="412" height="412" viewBox="0 0 412 412" fill="none" xmlns="http://www.w3.org/2000/svg">
<path d="M0 129C0 57.7553 57.7553 0 129 0H283C354.245 0 412 57.7553 412 129V283C412 354.245 354.245 412 283 412H129C57.7553 412 0 354.245 0 283V129Z" fill="black"/>
<path d="M301.371 89.1852C297.108 100.339 293.711 105.337 286.931 113.351M337.697 119.322C328.349 127.391 322.873 130.572 312.866 134.941M342.16 164.772C330.949 167.384 325.943 167.814 315.683 167.803M71 301.148L103.5 277.148C103.5 277.148 92.5 197.147 91.5 165.648C90.5 134.148 94 83.6475 111.5 72.1477C129 60.6478 141.5 97.1477 141.5 97.1477M126 145.646C142.065 100.378 148.5 57.6483 166.5 55.1479C184.5 52.6476 188 85.6478 188 85.6478M158.5 140.648C158.5 140.648 171.5 112.148 195 83.1478C218.5 54.1479 240.5 58.648 247 60.6481C253.5 62.6482 264 73.6476 250.5 92.6478C241.948 104.684 224 129.648 224 129.648M139.5 354.149C139.5 354.149 261.576 242.149 274.5 225.648C287.424 209.147 294 172.648 263.5 183.148C233 193.648 212.733 251.649 195.5 206.148C178.267 160.647 268.5 189.648 266 157.648C263.5 125.648 233 129.572 216 134.148C199 138.724 185 151.148 178 159.149" stroke="white" stroke-width="16" stroke-linecap="round"/>
</svg>
