<svg width="180" height="180" viewBox="0 0 180 180" fill="none"
    xmlns="http://www.w3.org/2000/svg">
    <rect x="114.771" y="65.2294" width="11.9725" height="11.3532" fill="#BD0033"/>
    <rect width="180" height="180" rx="45" fill="#FBEC22"/>
    <path fill-rule="evenodd" clip-rule="evenodd" d="M81.8536 28.1343C60.6298 31.0014 42.776 43.9302 33.6038 63.074C25.2934 80.4189 25.2934 99.8315 33.6038 117.176C46.0127 143.075 74.186 157.046 102.577 151.378C109.07 150.082 117.835 146.51 123.545 142.834C133.277 136.568 141.037 127.815 146.031 117.467C154.506 99.9072 154.554 80.5483 146.167 63.0429C140.109 50.4001 130.495 40.6327 117.941 34.3654C106.294 28.5517 94.209 26.4648 81.8536 28.1343ZM101.091 35.0449C112.195 37.4152 121.593 42.5069 129.545 50.4605C139.792 60.7107 145.395 73.5119 145.897 87.8145C146.119 94.1379 145.682 98.4393 144.236 104.168C140.594 118.591 131.086 131.11 117.922 138.815C115.028 140.508 109.497 143.022 108.663 143.022C108.41 143.022 107.877 142.259 107.479 141.325C105.316 136.253 104.996 131.893 106.556 128.762C107.453 126.961 107.477 126.773 107.051 124.849C106.329 121.592 104.797 118.627 102.801 116.619C101.793 115.606 100.969 114.602 100.969 114.389C100.969 114.175 101.693 113.266 102.577 112.369C103.461 111.471 104.185 110.552 104.185 110.324C104.185 110.097 103.644 109.279 102.983 108.507C101.625 106.921 101.695 105.971 103.241 104.958C104.001 104.46 104.08 104.232 103.816 103.308C103.399 101.855 103.677 101.31 105.072 100.85C106.337 100.432 106.673 99.7532 106.681 97.5944C106.687 95.9567 107.937 94.0639 109.546 93.2561C110.575 92.7396 111.36 92.6721 114.184 92.8565L117.583 93.0781L119.375 91.6603C122.701 89.0275 128.562 81.984 129.217 79.8327C129.439 79.105 129.696 75.8554 129.789 72.6119C129.983 65.8125 129.841 65.36 126.899 63.4103C125.088 62.2108 125.579 62.2848 114.676 61.5717C111.63 61.3727 108.738 60.9967 108.054 60.7107C106.853 60.2086 106.575 59.7732 105.122 56.1094C104.836 55.3874 104.208 54.5386 103.726 54.2226C102.395 53.3502 97.7209 52.9599 88.5744 52.957C79.185 52.9538 78.9413 53.0049 71.492 56.5294C65.5137 59.3579 65.4972 59.3762 61.3254 67.6103C59.3138 71.5808 57.0839 75.4762 56.3701 76.2665C55.6565 77.0571 53.9029 78.4928 52.4737 79.4578C49.6236 81.3814 49.2741 82.162 50.7855 83.2282C53.442 85.1032 53.2798 84.7322 52.7989 87.8266C52.5595 89.3653 51.9649 91.4966 51.4769 92.5624C50.221 95.307 50.2703 97.7013 51.6269 99.8415C52.1972 100.741 52.856 101.596 53.0911 101.741C53.5746 102.04 55.5922 105.124 55.5922 105.564C55.5922 105.722 55.3446 105.851 55.042 105.851C53.958 105.851 51.6455 104.382 49.3513 102.235C47.4969 100.5 47.0171 100.199 47.0171 100.77C47.0171 101.804 48.8765 105.192 50.7591 107.589C52.5152 109.825 52.6399 110.192 51.8635 110.836C51.2282 111.364 50.2889 110.924 48.3559 109.195C47.6184 108.536 46.7634 107.996 46.4561 107.996C45.8416 107.996 45.8909 108.272 47.061 111.391C48.5678 115.408 47.5495 117.007 45.1506 114.391C42.7813 111.808 42.1711 110.825 40.903 107.551C40.2374 105.831 39.5721 104.424 39.4245 104.423C39.2769 104.422 39.154 106.151 39.1512 108.264C39.148 110.377 39.0061 112.326 38.836 112.595C38.2901 113.457 35.9884 106.824 34.6356 100.49C33.6377 95.8188 33.7295 83.7371 34.7989 78.9238C37.315 67.6024 42.3115 58.3926 50.241 50.4605C58.2073 42.4916 67.9576 37.2272 78.7112 35.0885C83.7212 34.0923 84.0399 34.0691 91.1434 34.1874C95.9976 34.2682 98.4369 34.4784 101.091 35.0449ZM100.092 64.1966C100.574 64.6791 100.969 65.4529 100.969 65.9161C100.969 67.1224 99.7142 68.3229 98.454 68.3229C96.128 68.3229 95.0986 65.4836 96.9084 64.0601C98.1446 63.0872 99.0207 63.1247 100.092 64.1966ZM125.424 66.973C125.729 67.4097 125.98 68.1825 125.98 68.6896C125.98 69.9016 124.478 72.8807 123.027 74.548L121.871 75.8758L119.766 73.9915C117.254 71.7427 116.231 69.7933 116.763 68.2668C117.362 66.5494 119.328 65.9922 120.902 67.0949C121.639 67.6113 121.772 67.5974 122.638 66.9162C123.848 65.9636 124.73 65.9815 125.424 66.973ZM72.7354 72.2402C73.1323 73.0186 73.4571 74.0183 73.4571 74.4619C73.4571 75.1617 73.7147 75.0134 75.409 73.34C77.1562 71.6136 77.3903 71.4839 77.6418 72.1012C78.0016 72.9829 78.0055 76.6936 77.6486 78.3698L77.3738 79.6601L79.3722 79.8949C83.162 80.3406 85.6921 81.8614 88.5905 85.4366C91.6161 89.168 92.2228 89.6627 94.1007 89.9275C96.7308 90.2989 96.9666 90.4322 97.4186 91.8022C98.0003 93.5646 97.6373 96.4639 96.5725 98.5648C95.2784 101.117 94.512 101.671 92.0277 101.851C89.9218 102.004 89.8917 102.021 88.8288 103.749L87.7555 105.494H74.3139H60.872L61.12 104.154C61.2565 103.417 61.6416 102.181 61.9761 101.409C62.5556 100.071 62.552 99.9115 61.8957 98.0137C60.9117 95.1683 60.9435 91.1377 61.9661 89.1519C62.8565 87.422 64.4596 85.7258 66.7792 84.0595L68.3924 82.9008L69.877 77.4881C71.801 70.4724 71.696 70.8248 71.8661 70.8248C71.9472 70.8248 72.3381 71.4617 72.7354 72.2402ZM74.3522 79.9389C73.9999 80.7252 73.6354 82.4997 73.5422 83.8826C73.3774 86.3316 73.41 86.4542 74.8038 88.6112L76.2348 90.8257L76.6153 89.85C77.3824 87.8835 77.2602 86.4359 76.2473 85.492C75.632 84.9184 75.4769 84.399 75.523 83.0655C75.5552 82.132 75.4491 80.7252 75.2872 79.9389L74.9931 78.5092L74.3522 79.9389ZM84.0535 88.7152C82.3099 90.0873 83.2417 92.9845 85.4266 92.9845C87.3571 92.9845 88.5312 90.2081 87.1238 88.9718C86.0122 87.9957 85.0682 87.9167 84.0535 88.7152ZM87.8301 108.979C89.5677 110.958 96.3149 124.904 99.2855 132.657C101.252 137.79 103.311 144.372 103.036 144.648C102.958 144.726 101.697 145.066 100.234 145.403C98.1711 145.879 95.8529 146.018 89.8928 146.024C82.7111 146.031 81.9326 145.967 77.9376 145.029C72.5221 143.757 69.6233 142.719 64.7033 140.289C60.6487 138.287 56.1257 135.242 52.5688 132.12L50.5307 130.33L53.1012 123.363C54.5146 119.531 56.5269 114.586 57.572 112.374L59.4728 108.353H73.3767C86.1716 108.353 87.3249 108.403 87.8301 108.979Z" fill="black"/>
</svg>