<svg width="288" height="316" viewBox="0 0 288 316" fill="none" xmlns="http://www.w3.org/2000/svg">
<path d="M238.371 42.1852C234.108 53.3393 230.711 58.337 223.931 66.3507M274.697 72.3222C265.349 80.3909 259.873 83.5715 249.866 87.9408M279.16 117.772C267.949 120.384 262.943 120.814 252.683 120.803M8 254.148L40.5 230.148C40.5 230.148 29.5 150.147 28.5 118.648C27.5 87.1479 31 36.6475 48.5 25.1477C66 13.6478 78.5 50.1477 78.5 50.1477M63 98.646C79.0649 53.378 85.5 10.6483 103.5 8.14793C121.5 5.64758 125 38.6478 125 38.6478M95.5 93.6479C95.5 93.6479 108.5 65.1477 132 36.1478C155.5 7.14793 177.5 11.648 184 13.6481C190.5 15.6482 201 26.6476 187.5 45.6478C178.948 57.6844 161 82.6478 161 82.6478M76.5 307.149C76.5 307.149 198.576 195.149 211.5 178.648C224.424 162.147 231 125.648 200.5 136.148C170 146.648 149.733 204.649 132.5 159.148C115.267 113.647 205.5 142.648 203 110.648C200.5 78.6478 170 82.5721 153 87.1481C136 91.724 122 104.148 115 112.149" stroke="black" stroke-width="16" stroke-linecap="round"/>
</svg>
